<svg enable-background="new 0 0 520 520" viewBox="0 0 520 520" xmlns="http://www.w3.org/2000/svg"><g id="_x31_031_x2C__Carton_x2C__Drink_x2C__Education_x2C__Learning_x2C__Lunch"><g><g><path d="m420 110v-50h-330v50c-8.471 16.942-36.718 73.437-50 100v280h430v-280z" fill="#74829c"/><path d="m70 150 20-40h330l-50 100h-330zm300 0c0-5.52-4.48-10-10-10s-10 4.48-10 10 4.48 10 10 10 10-4.48 10-10z" fill="#afb9d2"/><path d="m40 210v230 50h330v-50-230z" fill="#d7deed"/><path d="m156.38 290.36c21.47 21.47 26.22 51.55 10.6 67.17s-45.69 10.87-67.17-10.61c-21.48-21.47-26.23-51.55-10.61-67.17s45.7-10.87 67.18 10.61z" fill="#3c3b3d"/><path d="m45 80c8.28 0 15 6.72 15 15s-6.72 15-15 15-15-6.72-15-15 6.72-15 15-15z" fill="#74829c"/><path d="m470 80c11.05 0 20 8.95 20 20s-8.95 20-20 20-20-8.95-20-20 8.95-20 20-20z" fill="#74829c"/><path d="m420 410 50 80h-100z" fill="#afb9d2"/><path d="m420 110-50 100v230 50l50-80 50 80v-280z" fill="#9aa7c1"/><path d="m450 30c5.52 0 10 4.48 10 10s-4.48 10-10 10-10-4.48-10-10 4.48-10 10-10z" fill="#74829c"/><path d="m40 30c5.52 0 10 4.48 10 10s-4.48 10-10 10-10-4.48-10-10 4.48-10 10-10z" fill="#74829c"/><g fill="#3c3b3d"><path d="m258.91 459.45c-2.559 0-5.118-.976-7.07-2.929l-91.931-91.92c-3.905-3.905-3.906-10.237 0-14.143 3.905-3.904 10.237-3.904 14.142 0l91.93 91.92c3.905 3.904 3.906 10.236.001 14.142-1.953 1.954-4.512 2.93-7.072 2.93z"/><path d="m271.405 381.431c-9.788 0-18.988-3.811-25.907-10.729l-18.899-18.899c-14.285-14.285-14.285-37.528 0-51.813l33.92-33.92c3.906-3.904 10.236-3.904 14.143 0 3.905 3.905 3.905 10.237 0 14.143l-33.92 33.92c-6.487 6.486-6.487 17.042 0 23.528l18.899 18.899c3.142 3.142 7.319 4.872 11.765 4.872 4.444 0 8.622-1.73 11.764-4.872l33.92-33.92c3.906-3.904 10.236-3.904 14.143 0 3.905 3.905 3.905 10.237 0 14.143l-33.92 33.92c-6.92 6.917-16.121 10.728-25.908 10.728z"/><path d="m144.41 463.46c-2.559 0-5.119-.977-7.071-2.929-3.905-3.905-3.905-10.237 0-14.143l144.67-144.68c3.907-3.905 10.237-3.903 14.143 0 3.905 3.905 3.905 10.237 0 14.143l-144.67 144.68c-1.953 1.952-4.513 2.929-7.072 2.929z"/></g><g fill="#afb9d2"><path d="m120 440c0-5.522-4.477-10-10-10h-70v10 10h70c5.523 0 10-4.478 10-10z"/><path d="m370 430h-80c-5.522 0-10 4.478-10 10s4.478 10 10 10h80v-10z"/></g><g fill="#9aa7c1"><path d="m360 140c-5.52 0-10 4.48-10 10s4.48 10 10 10 10-4.48 10-10-4.48-10-10-10z"/><path d="m330 150c0-5.523-4.478-10-10-10h-245l-5 10-5 10h255c5.522 0 10-4.477 10-10z"/></g></g></g></g></svg>